<svg xmlns="http://www.w3.org/2000/svg" style="margin:auto;background:#f1f2f3;display:block;" width="797" height="120" preserveAspectRatio="xMidYMid">
<style type="text/css">
  text {
    text-anchor: middle; font-size: 80px; opacity: 0;
  }
</style>
<g style="transform-origin:398.5px 60px;transform:scale(1)">
<g transform="translate(398.5,60)">
  <g transform="translate(0,0)"><g class="path" style="transform: rotate(0deg); transform-origin: -274.72px 1.90826px; animation: 1s linear -0.616s infinite normal forwards running spin-50ca6bda-009f-4202-b4c8-40713e72ce41;"><path d="M102.24 6.56L103.28 7.92L103.28 7.92Q100.24 10.96 95.40 10.96L95.40 10.96L95.40 10.96Q90.56 10.96 87.68 7.80L87.68 7.80L87.68 7.80Q84.80 4.64 84.80-0.52L84.80-0.52L84.80-0.52Q84.80-5.68 86.64-12.40L86.64-12.40L90.24-24.24L90.24-24.24Q83.52-15.76 77.92-8L77.92-8L77.92-8Q66.88 7.28 62.96 12.48L62.96 12.48L61.52 12.08L58.40-26.64L52-14.96L52-14.96Q42.88 2.24 36.76 7.72L36.76 7.72L36.76 7.72Q30.64 13.20 20.48 13.20L20.48 13.20L20.48 13.20Q11.84 13.20 6.16 7.04L6.16 7.04L6.16 7.04Q1.68 2 1.68-5.04L1.68-5.04L1.68-5.04Q1.68-6.32 1.84-7.68L1.84-7.68L3.44-7.52L3.44-7.52Q3.28-6.24 3.28-5.04L3.28-5.04L3.28-5.04Q3.28 1.44 7.36 5.92L7.36 5.92L7.36 5.92Q12.56 11.60 20.48 11.60L20.48 11.60L20.48 11.60Q30 11.60 35.84 6.28L35.84 6.28L35.84 6.28Q41.68 0.96 50.56-15.68L50.56-15.68L64.96-41.84L64.96-41.84Q56.48-42 48.52-44.52L48.52-44.52L48.52-44.52Q40.56-47.04 34.28-47.04L34.28-47.04L34.28-47.04Q28-47.04 23.76-42.64L23.76-42.64L23.76-42.64Q19.52-38.24 19.52-31.28L19.52-31.28L17.92-31.28L17.92-31.28Q17.92-38.96 22.60-43.80L22.60-43.80L22.60-43.80Q27.28-48.64 34.72-48.64L34.72-48.64L34.72-48.64Q40.72-48.64 49-46.04L49-46.04L49-46.04Q57.28-43.44 66.88-43.44L66.88-43.44L70.24-0.24L71.84-2.48L71.84-2.48Q88.72-25.68 97.92-35.64L97.92-35.64L97.92-35.64Q107.12-45.60 112.80-45.60L112.80-45.60L112.80-44L112.80-44Q110.32-44 106.48-41.28L106.48-41.28L106.48-41.28Q105.92-39.52 102.72-29.08L102.72-29.08L102.72-29.08Q99.52-18.64 97-10.84L97-10.84L97-10.84Q94.48-3.04 94.48 1.92L94.48 1.92L94.48 1.92Q94.48 6.88 96.24 9.28L96.24 9.28L96.24 9.28Q97.92 9.28 99.40 8.60L99.40 8.60L99.40 8.60Q100.88 7.92 101.60 7.20L101.60 7.20L102.24 6.56" fill="#141414" stroke="none" stroke-width="none" transform="translate(-331.9600410461426,19.62826403808594)" style="fill: rgb(20, 20, 20);"></path></g><g class="path" style="transform: rotate(0deg); transform-origin: -206.12px 4.42826px; animation: 1s linear -0.572s infinite normal forwards running spin-50ca6bda-009f-4202-b4c8-40713e72ce41;"><path d="M122.72 0.72L122.72 0.72Q116.56 0.72 113.36-2.36L113.36-2.36L113.36-2.36Q110.16-5.44 110.16-10.12L110.16-10.12L110.16-10.12Q110.16-14.80 111-18.12L111-18.12L111-18.12Q111.84-21.44 113.76-24.52L113.76-24.52L113.76-24.52Q115.68-27.60 119.56-29.36L119.56-29.36L119.56-29.36Q123.44-31.12 129.24-31.12L129.24-31.12L129.24-31.12Q135.04-31.12 138.28-28.04L138.28-28.04L138.28-28.04Q141.52-24.96 141.52-19.60L141.52-19.60L141.52-19.60Q141.52-10.48 136.68-4.88L136.68-4.88L136.68-4.88Q131.84 0.72 122.72 0.72L122.72 0.72zM119.20-7.52L119.20-7.52L119.20-7.52Q119.20-1.12 122.92-1.12L122.92-1.12L122.92-1.12Q126.64-1.12 129.56-7.56L129.56-7.56L129.56-7.56Q132.48-14 132.48-22.88L132.48-22.88L132.48-22.88Q132.48-29.60 128.84-29.60L128.84-29.60L128.84-29.60Q125.20-29.60 122.20-23.48L122.20-23.48L122.20-23.48Q119.20-17.36 119.20-7.52" fill="#141414" stroke="none" stroke-width="none" transform="translate(-331.9600410461426,19.62826403808594)" style="fill: rgb(171, 50, 89);"></path></g><g class="path" style="transform: rotate(0deg); transform-origin: -168.32px 4.42826px; animation: 1s linear -0.528s infinite normal forwards running spin-50ca6bda-009f-4202-b4c8-40713e72ce41;"><path d="M176.40-0.88L176.40-0.88L176.40-0.88Q178.32-0.88 180.40-3.12L180.40-3.12L181.60-2.16L181.60-2.16Q181.04-1.04 179.12-0.16L179.12-0.16L179.12-0.16Q177.20 0.72 174.88 0.72L174.88 0.72L174.88 0.72Q167.60 0.72 167.60-5.84L167.60-5.84L167.60-5.84Q167.60-8.64 169.04-15.84L169.04-15.84L169.04-15.84Q170.48-23.04 170.48-25.28L170.48-25.28L170.48-25.28Q170.48-28.72 167.20-28.72L167.20-28.72L167.20-28.72Q164.56-28.72 162.12-25.28L162.12-25.28L162.12-25.28Q159.68-21.84 158.08-15.84L158.08-15.84L155.36-0.88L155.36-0.88Q157.84-1.12 159.44-3.12L159.44-3.12L160.64-2.16L160.64-2.16Q158.24 0.72 154.64 0.72L154.64 0.72L154.64 0.72Q151.04 0.72 149-1.12L149-1.12L149-1.12Q146.96-2.96 146.96-5.92L146.96-5.92L146.96-5.92Q146.96-7.04 148.24-14.72L148.24-14.72L150.88-29.52L150.88-29.52Q148.48-29.28 146.88-27.28L146.88-27.28L145.68-28.24L145.68-28.24Q148.08-31.12 151.72-31.12L151.72-31.12L151.72-31.12Q155.36-31.12 157.36-29.28L157.36-29.28L157.36-29.28Q159.36-27.44 159.36-24.08L159.36-24.08L159.36-23.60L159.36-23.60Q162.64-31.12 169.60-31.12L169.60-31.12L169.60-31.12Q174.32-31.12 176.96-28.44L176.96-28.44L176.96-28.44Q179.60-25.76 179.60-21.04L179.60-21.04L179.60-21.04Q179.60-18.56 178.08-11.48L178.08-11.48L178.08-11.48Q176.56-4.40 176.40-0.88" fill="#141414" stroke="none" stroke-width="none" transform="translate(-331.9600410461426,19.62826403808594)" style="fill: rgb(220, 199, 91);"></path></g><g class="path" style="transform: rotate(0deg); transform-origin: -134.04px -1.49174px; animation: 1s linear -0.484s infinite normal forwards running spin-50ca6bda-009f-4202-b4c8-40713e72ce41;"><path d="M186.24-30.40L190.32-30.40L192.48-42.24L192.48-42.24Q198.40-42.24 201.28-42.72L201.28-42.72L202.32-42.96L202.32-42.96Q201.20-37.36 199.84-30.40L199.84-30.40L209.76-30.40L209.60-28.96L199.60-28.96L199.60-28.96Q195.60-8.32 195.60-4.08L195.60-4.08L195.60-4.08Q195.60-1.52 198.32-1.52L198.32-1.52L198.32-1.52Q201.04-1.52 203.28-4.96L203.28-4.96L203.28-4.96Q205.52-8.40 206.48-12.40L206.48-12.40L207.92-11.92L207.92-11.92Q204.96 0.72 195.68 0.72L195.68 0.72L195.68 0.72Q191.84 0.72 189.28-1.40L189.28-1.40L189.28-1.40Q186.72-3.52 186.72-7.32L186.72-7.32L186.72-7.32Q186.72-11.12 190-28.96L190-28.96L186.08-28.96L186.24-30.40" fill="#141414" stroke="none" stroke-width="none" transform="translate(-331.9600410461426,19.62826403808594)" style="fill: rgb(232, 199, 174);"></path></g><g class="path" style="transform: rotate(0deg); transform-origin: -103.56px 4.42826px; animation: 1s linear -0.44s infinite normal forwards running spin-50ca6bda-009f-4202-b4c8-40713e72ce41;"><path d="M239.36 0.72L239.36 0.72L239.36 0.72Q232.32 0.72 231.68-5.44L231.68-5.44L231.68-5.44Q228.16 0.72 222.80 0.72L222.80 0.72L222.80 0.72Q217.44 0.72 214.28-2.52L214.28-2.52L214.28-2.52Q211.12-5.76 211.12-11.60L211.12-11.60L211.12-11.60Q211.12-20.72 215.60-25.92L215.60-25.92L215.60-25.92Q220.08-31.12 227.20-31.12L227.20-31.12L227.20-31.12Q233.04-31.12 234.96-25.60L234.96-25.60L234.96-25.60Q235.36-28 235.84-30.40L235.84-30.40L235.84-30.40Q241.76-30.40 244.64-30.88L244.64-30.88L245.68-31.12L240.16-0.88L240.16-0.88Q242.56-1.12 244.16-3.12L244.16-3.12L245.36-2.16L245.36-2.16Q242.96 0.72 239.36 0.72zM220.16-7.52L220.16-7.52Q220.16-3.92 221.08-2.52L221.08-2.52L221.08-2.52Q222.00-1.12 223.92-1.12L223.92-1.12L223.92-1.12Q225.84-1.12 227.84-3.20L227.84-3.20L227.84-3.20Q230.48-5.92 232.08-10.08L232.08-10.08L232.08-10.08Q232.32-11.12 233.00-15.08L233.00-15.08L233.00-15.08Q233.68-19.04 234.16-21.60L234.16-21.60L234.16-21.60Q233.92-24.64 232.48-26.88L232.48-26.88L232.48-26.88Q231.04-29.12 228.88-29.12L228.88-29.12L228.88-29.12Q224.96-29.12 222.56-22.12L222.56-22.12L222.56-22.12Q220.16-15.12 220.16-7.52L220.16-7.52" fill="#141414" stroke="none" stroke-width="none" transform="translate(-331.9600410461426,19.62826403808594)" style="fill: rgb(8, 34, 103);"></path></g><g class="path" style="transform: rotate(0deg); transform-origin: -70.68px 2.58826px; animation: 1s linear -0.396s infinite normal forwards running spin-50ca6bda-009f-4202-b4c8-40713e72ce41;"><path d="M257.36-1.36L257.36-1.36L257.36-1.36Q265.28-1.36 265.28-13.04L265.28-13.04L265.28-13.04Q265.28-15.92 264.44-19.84L264.44-19.84L264.44-19.84Q263.60-23.76 263.44-24.72L263.44-24.72L263.44-24.72Q258.56-19.68 252.48-18.64L252.48-18.64L252.48-20.56L252.48-20.56Q258.24-21.84 263.28-27.12L263.28-27.12L263.28-27.44L263.28-27.44Q263.28-29.36 263.84-31.20L263.84-31.20L263.84-31.20Q264.40-33.04 264.96-33.92L264.96-33.92L265.52-34.80L267.44-34.80L267.44-34.80Q267.44-31.28 268.56-28.36L268.56-28.36L268.56-28.36Q269.68-25.44 271.04-23.64L271.04-23.64L271.04-23.64Q272.40-21.84 273.52-18.92L273.52-18.92L273.52-18.92Q274.64-16 274.64-12.48L274.64-12.48L274.64-12.48Q274.64-6.80 270.36-3.04L270.36-3.04L270.36-3.04Q266.08 0.72 260.08 0.72L260.08 0.72L260.08 0.72Q254.08 0.72 251.00-2L251.00-2L251.00-2Q247.92-4.72 247.92-8.28L247.92-8.28L247.92-8.28Q247.92-11.84 249.68-13.40L249.68-13.40L249.68-13.40Q251.44-14.96 253.84-14.96L253.84-14.96L253.84-14.96Q256.24-14.96 257.80-13.40L257.80-13.40L257.80-13.40Q259.36-11.84 259.36-9.40L259.36-9.40L259.36-9.40Q259.36-6.96 257.84-5.28L257.84-5.28L257.84-5.28Q256.32-3.60 253.92-3.60L253.92-3.60L253.92-3.60Q252.88-3.60 251.76-3.92L251.76-3.92L251.76-3.92Q253.52-1.36 257.36-1.36" fill="#141414" stroke="none" stroke-width="none" transform="translate(-331.9600410461426,19.62826403808594)" style="fill: rgb(20, 20, 20);"></path></g><g class="path" style="transform: rotate(0deg); transform-origin: -44.9601px 4.42826px; animation: 1s linear -0.352s infinite normal forwards running spin-50ca6bda-009f-4202-b4c8-40713e72ce41;"><path d="M293.68-2.16L293.68-2.16Q291.28 0.72 287.68 0.72L287.68 0.72L287.68 0.72Q284.08 0.72 282.04-1.12L282.04-1.12L282.04-1.12Q280-2.96 280-5.92L280-5.92L280-5.92Q280-6.96 281.28-14.64L281.28-14.64L283.92-28.96L280.56-28.96L280.72-30.40L284.16-30.40L284.16-30.40Q290.08-30.40 292.88-30.88L292.88-30.88L294-31.12L288.48-0.88L288.48-0.88Q290.88-1.12 292.48-3.12L292.48-3.12L293.68-2.16" fill="#141414" stroke="none" stroke-width="none" transform="translate(-331.9600410461426,19.62826403808594)" style="fill: rgb(171, 50, 89);"></path></g><g class="path" style="transform: rotate(0deg); transform-origin: -41.2001px -23.2917px; animation: 1s linear -0.308s infinite normal forwards running spin-50ca6bda-009f-4202-b4c8-40713e72ce41;"><path d="M286.64-38.80L286.64-38.80L286.64-38.80Q284.96-40.48 284.96-42.88L284.96-42.88L284.96-42.88Q284.96-45.28 286.64-47L286.64-47L286.64-47Q288.32-48.72 290.72-48.72L290.72-48.72L290.72-48.72Q293.12-48.72 294.84-47L294.84-47L294.84-47Q296.56-45.28 296.56-42.88L296.56-42.88L296.56-42.88Q296.56-40.48 294.84-38.80L294.84-38.80L294.84-38.80Q293.12-37.12 290.72-37.12L290.72-37.12L290.72-37.12Q288.32-37.12 286.64-38.80" fill="#141414" stroke="none" stroke-width="none" transform="translate(-331.9600410461426,19.62826403808594)" style="fill: rgb(220, 199, 91);"></path></g><g class="path" style="transform: rotate(0deg); transform-origin: -18.68px 4.06826px; animation: 1s linear -0.264s infinite normal forwards running spin-50ca6bda-009f-4202-b4c8-40713e72ce41;"><path d="M299.92-27.28L298.72-28.24L298.72-28.24Q301.12-31.12 304.76-31.12L304.76-31.12L304.76-31.12Q308.40-31.12 310.40-29.28L310.40-29.28L310.40-29.28Q312.40-27.44 312.40-24.08L312.40-24.08L312.40-23.60L312.40-23.60Q316.00-31.12 321.76-31.12L321.76-31.12L321.76-31.12Q327.92-31.12 327.92-24.72L327.92-24.72L327.92-24.72Q327.92-22.08 326.16-19.12L326.16-19.12L326.16-19.12Q324.40-16.16 322.64-13.48L322.64-13.48L322.64-13.48Q320.88-10.80 320.88-8.72L320.88-8.72L318.96-8.72L318.96-8.72Q318.96-11.68 322.40-16.72L322.40-16.72L322.40-16.72Q325.84-21.76 325.84-24.52L325.84-24.52L325.84-24.52Q325.84-27.28 324.76-28.28L324.76-28.28L324.76-28.28Q323.68-29.28 321.56-29.28L321.56-29.28L321.56-29.28Q319.44-29.28 317.40-27.44L317.40-27.44L317.40-27.44Q315.36-25.60 314.00-22.80L314.00-22.80L314.00-22.80Q311.84-18.64 311.12-16L311.12-16L311.12-15.92L308.24 0L298.64 0L303.92-29.52L303.92-29.52Q301.52-29.28 299.92-27.28L299.92-27.28" fill="#141414" stroke="none" stroke-width="none" transform="translate(-331.9600410461426,19.62826403808594)" style="fill: rgb(232, 199, 174);"></path></g><g class="path" style="transform: rotate(0deg); transform-origin: 67.2px 1.90826px; animation: 1s linear -0.22s infinite normal forwards running spin-50ca6bda-009f-4202-b4c8-40713e72ce41;"><path d="M444.16 6.56L445.20 7.92L445.20 7.92Q442.16 10.96 437.32 10.96L437.32 10.96L437.32 10.96Q432.48 10.96 429.60 7.80L429.60 7.80L429.60 7.80Q426.72 4.64 426.72-0.52L426.72-0.52L426.72-0.52Q426.72-5.68 428.56-12.40L428.56-12.40L432.16-24.24L432.16-24.24Q425.44-15.76 419.84-8L419.84-8L419.84-8Q408.80 7.28 404.88 12.48L404.88 12.48L403.44 12.08L400.32-26.64L393.92-14.96L393.92-14.96Q384.80 2.24 378.68 7.72L378.68 7.72L378.68 7.72Q372.56 13.20 362.40 13.20L362.40 13.20L362.40 13.20Q353.76 13.20 348.08 7.04L348.08 7.04L348.08 7.04Q343.60 2 343.60-5.04L343.60-5.04L343.60-5.04Q343.60-6.32 343.76-7.68L343.76-7.68L345.36-7.52L345.36-7.52Q345.20-6.24 345.20-5.04L345.20-5.04L345.20-5.04Q345.20 1.44 349.28 5.92L349.28 5.92L349.28 5.92Q354.48 11.60 362.40 11.60L362.40 11.60L362.40 11.60Q371.92 11.60 377.76 6.28L377.76 6.28L377.76 6.28Q383.60 0.96 392.48-15.68L392.48-15.68L406.88-41.84L406.88-41.84Q398.40-42 390.44-44.52L390.44-44.52L390.44-44.52Q382.48-47.04 376.20-47.04L376.20-47.04L376.20-47.04Q369.92-47.04 365.68-42.64L365.68-42.64L365.68-42.64Q361.44-38.24 361.44-31.28L361.44-31.28L359.84-31.28L359.84-31.28Q359.84-38.96 364.52-43.80L364.52-43.80L364.52-43.80Q369.20-48.64 376.64-48.64L376.64-48.64L376.64-48.64Q382.64-48.64 390.92-46.04L390.92-46.04L390.92-46.04Q399.20-43.44 408.80-43.44L408.80-43.44L412.16-0.24L413.76-2.48L413.76-2.48Q430.64-25.68 439.84-35.64L439.84-35.64L439.84-35.64Q449.04-45.60 454.72-45.60L454.72-45.60L454.72-44L454.72-44Q452.24-44 448.40-41.28L448.40-41.28L448.40-41.28Q447.84-39.52 444.64-29.08L444.64-29.08L444.64-29.08Q441.44-18.64 438.92-10.84L438.92-10.84L438.92-10.84Q436.40-3.04 436.40 1.92L436.40 1.92L436.40 1.92Q436.40 6.88 438.16 9.28L438.16 9.28L438.16 9.28Q439.84 9.28 441.32 8.60L441.32 8.60L441.32 8.60Q442.80 7.92 443.52 7.20L443.52 7.20L444.16 6.56" fill="#141414" stroke="none" stroke-width="none" transform="translate(-331.9600410461426,19.62826403808594)" style="fill: rgb(8, 34, 103);"></path></g><g class="path" style="transform: rotate(0deg); transform-origin: 137.4px 4.42826px; animation: 1s linear -0.176s infinite normal forwards running spin-50ca6bda-009f-4202-b4c8-40713e72ce41;"><path d="M480.32 0.72L480.32 0.72L480.32 0.72Q473.28 0.72 472.64-5.44L472.64-5.44L472.64-5.44Q469.12 0.72 463.76 0.72L463.76 0.72L463.76 0.72Q458.40 0.72 455.24-2.52L455.24-2.52L455.24-2.52Q452.08-5.76 452.08-11.60L452.08-11.60L452.08-11.60Q452.08-20.72 456.56-25.92L456.56-25.92L456.56-25.92Q461.04-31.12 468.16-31.12L468.16-31.12L468.16-31.12Q474.00-31.12 475.92-25.60L475.92-25.60L475.92-25.60Q476.32-28 476.80-30.40L476.80-30.40L476.80-30.40Q482.72-30.40 485.60-30.88L485.60-30.88L486.64-31.12L481.12-0.88L481.12-0.88Q483.52-1.12 485.12-3.12L485.12-3.12L486.32-2.16L486.32-2.16Q483.92 0.72 480.32 0.72zM461.12-7.52L461.12-7.52Q461.12-3.92 462.04-2.52L462.04-2.52L462.04-2.52Q462.96-1.12 464.88-1.12L464.88-1.12L464.88-1.12Q466.80-1.12 468.80-3.20L468.80-3.20L468.80-3.20Q471.44-5.92 473.04-10.08L473.04-10.08L473.04-10.08Q473.28-11.12 473.96-15.08L473.96-15.08L473.96-15.08Q474.64-19.04 475.12-21.60L475.12-21.60L475.12-21.60Q474.88-24.64 473.44-26.88L473.44-26.88L473.44-26.88Q472.00-29.12 469.84-29.12L469.84-29.12L469.84-29.12Q465.92-29.12 463.52-22.12L463.52-22.12L463.52-22.12Q461.12-15.12 461.12-7.52L461.12-7.52" fill="#141414" stroke="none" stroke-width="none" transform="translate(-331.9600410461426,19.62826403808594)" style="fill: rgb(20, 20, 20);"></path></g><g class="path" style="transform: rotate(0deg); transform-origin: 176.04px -5.93174px; animation: 1s linear -0.132s infinite normal forwards running spin-50ca6bda-009f-4202-b4c8-40713e72ce41;"><path d="M520.80-0.88L520.80-0.88L520.80-0.88Q522.72-0.88 524.80-3.12L524.80-3.12L526-2.16L526-2.16Q525.44-1.04 523.52-0.16L523.52-0.16L523.52-0.16Q521.60 0.72 519.28 0.72L519.28 0.72L519.28 0.72Q512 0.72 512-5.84L512-5.84L512-5.84Q512-8.64 513.44-15.84L513.44-15.84L513.44-15.84Q514.88-23.04 514.88-25.28L514.88-25.28L514.88-25.28Q514.88-28.72 511.60-28.72L511.60-28.72L511.60-28.72Q508.88-28.72 506.36-25.04L506.36-25.04L506.36-25.04Q503.84-21.36 502.24-15.04L502.24-15.04L499.60 0L490.00 0L498.88-50.24L498.88-50.24Q496.48-50 494.88-48L494.88-48L493.68-48.96L493.68-48.96Q496.08-51.84 499.72-51.84L499.72-51.84L499.72-51.84Q503.36-51.84 505.36-50L505.36-50L505.36-50Q507.36-48.16 507.36-44.80L507.36-44.80L507.36-44.80Q507.36-44.16 507.20-42.72L507.20-42.72L503.84-23.76L503.84-23.76Q507.12-31.12 514-31.12L514-31.12L514-31.12Q518.72-31.12 521.36-28.44L521.36-28.44L521.36-28.44Q524-25.76 524-21.04L524-21.04L524-21.04Q524-18.56 522.48-11.48L522.48-11.48L522.48-11.48Q520.96-4.40 520.80-0.88" fill="#141414" stroke="none" stroke-width="none" transform="translate(-331.9600410461426,19.62826403808594)" style="fill: rgb(171, 50, 89);"></path></g><g class="path" style="transform: rotate(0deg); transform-origin: 225.96px 4.42826px; animation: 1s linear -0.088s infinite normal forwards running spin-50ca6bda-009f-4202-b4c8-40713e72ce41;"><path d="M560.24-0.88L560.24-0.88L560.24-0.88Q562.16-0.88 564.24-3.12L564.24-3.12L565.44-2.16L565.44-2.16Q564.88-1.04 562.96-0.16L562.96-0.16L562.96-0.16Q561.04 0.72 558.72 0.72L558.72 0.72L558.72 0.72Q551.44 0.72 551.44-5.84L551.44-5.84L551.44-5.84Q551.44-8.64 552.88-15.84L552.88-15.84L552.88-15.84Q554.32-23.04 554.32-25.28L554.32-25.28L554.32-25.28Q554.32-28.72 551.04-28.72L551.04-28.72L551.04-28.72Q546.08-28.72 542.72-16L542.72-16L539.84 0L530.24 0L535.52-29.52L535.52-29.52Q533.12-29.28 531.52-27.28L531.52-27.28L530.32-28.24L530.32-28.24Q532.72-31.12 536.36-31.12L536.36-31.12L536.36-31.12Q540.00-31.12 542.00-29.28L542.00-29.28L542.00-29.28Q544.00-27.44 544.00-24.08L544.00-24.08L544.00-23.84L544.00-23.84Q547.12-31.12 553.44-31.12L553.44-31.12L553.44-31.12Q557.92-31.12 560.52-28.68L560.52-28.68L560.52-28.68Q563.12-26.24 563.36-21.84L563.36-21.84L563.36-21.84Q564.88-26.24 567.20-28.68L567.20-28.68L567.20-28.68Q569.52-31.12 573.92-31.12L573.92-31.12L573.92-31.12Q578.32-31.12 580.96-28.44L580.96-28.44L580.96-28.44Q583.60-25.76 583.60-21.04L583.60-21.04L583.60-21.04Q583.60-18.56 582.08-11.48L582.08-11.48L582.08-11.48Q580.56-4.40 580.40-0.88L580.40-0.88L580.40-0.88Q582.32-0.88 584.40-3.12L584.40-3.12L585.60-2.16L585.60-2.16Q585.04-1.04 583.12-0.16L583.12-0.16L583.12-0.16Q581.20 0.72 578.88 0.72L578.88 0.72L578.88 0.72Q571.60 0.72 571.60-5.84L571.60-5.84L571.60-5.84Q571.60-8.64 573.04-15.84L573.04-15.84L573.04-15.84Q574.48-23.04 574.48-25.28L574.48-25.28L574.48-25.28Q574.48-28.72 571.20-28.72L571.20-28.72L571.20-28.72Q565.44-28.72 561.92-11.60L561.92-11.60L561.92-11.60Q560.40-4.32 560.24-0.88" fill="#141414" stroke="none" stroke-width="none" transform="translate(-331.9600410461426,19.62826403808594)" style="fill: rgb(220, 199, 91);"></path></g><g class="path" style="transform: rotate(0deg); transform-origin: 275.04px 4.42826px; animation: 1s linear -0.044s infinite normal forwards running spin-50ca6bda-009f-4202-b4c8-40713e72ce41;"><path d="M594.32-29.52L594.32-29.52L594.32-29.52Q592.40-29.52 590.32-27.28L590.32-27.28L589.12-28.24L589.12-28.24Q589.68-29.36 591.60-30.24L591.60-30.24L591.60-30.24Q593.52-31.12 595.84-31.12L595.84-31.12L595.84-31.12Q603.12-31.12 603.12-24.56L603.12-24.56L603.12-24.56Q603.12-21.76 601.68-14.56L601.68-14.56L601.68-14.56Q600.24-7.36 600.24-5.12L600.24-5.12L600.24-5.12Q600.24-1.68 603.52-1.68L603.52-1.68L603.52-1.68Q605.84-1.68 608.04-4.40L608.04-4.40L608.04-4.40Q610.24-7.12 611.84-11.92L611.84-11.92L615.20-30.40L615.20-30.40Q621.12-30.40 623.84-30.88L623.84-30.88L624.88-31.12L619.52-0.88L619.52-0.88Q621.92-1.12 623.52-3.12L623.52-3.12L624.72-2.16L624.72-2.16Q622.32 0.72 618.72 0.72L618.72 0.72L618.72 0.72Q615.12 0.72 613.12-1.04L613.12-1.04L613.12-1.04Q611.12-2.80 611.04-6L611.04-6L611.04-6Q607.68 0.72 601.12 0.72L601.12 0.72L601.12 0.72Q596.40 0.72 593.76-1.96L593.76-1.96L593.76-1.96Q591.12-4.64 591.12-9.36L591.12-9.36L591.12-9.36Q591.12-11.84 592.64-18.92L592.64-18.92L592.64-18.92Q594.16-26 594.32-29.52" fill="#141414" stroke="none" stroke-width="none" transform="translate(-331.9600410461426,19.62826403808594)" style="fill: rgb(232, 199, 174);"></path></g><g class="path" style="transform: rotate(0deg); transform-origin: 315.44px -5.93174px; animation: 1s linear 0s infinite normal forwards running spin-50ca6bda-009f-4202-b4c8-40713e72ce41;"><path d="M657.04 0.72L657.04 0.72L657.04 0.72Q650.00 0.72 649.36-5.28L649.36-5.28L649.36-5.28Q645.84 0.72 640.40 0.72L640.40 0.72L640.40 0.72Q634.96 0.72 632.08-2.36L632.08-2.36L632.08-2.36Q629.20-5.44 629.20-10.80L629.20-10.80L629.20-10.80Q629.20-20.24 633.68-25.68L633.68-25.68L633.68-25.68Q638.16-31.12 645.28-31.12L645.28-31.12L645.28-31.12Q649.36-31.12 651.60-28.64L651.60-28.64L651.60-28.64Q652.56-27.36 652.80-26.72L652.80-26.72L657.12-50.24L657.12-50.24Q654.72-50 653.12-48L653.12-48L651.92-48.96L651.92-48.96Q654.32-51.84 657.96-51.84L657.96-51.84L657.96-51.84Q661.60-51.84 663.60-50L663.60-50L663.60-50Q665.60-48.16 665.60-44.80L665.60-44.80L665.60-44.80Q665.60-44.16 665.44-42.72L665.44-42.72L665.44-42.72Q661.52-20.72 657.84-0.88L657.84-0.88L657.84-0.88Q660.24-1.12 661.84-3.12L661.84-3.12L663.04-2.16L663.04-2.16Q660.64 0.72 657.04 0.72zM638.24-7.52L638.24-7.52Q638.24-3.84 639.00-2.48L639.00-2.48L639.00-2.48Q639.76-1.12 641.40-1.12L641.40-1.12L641.40-1.12Q643.04-1.12 644.56-2.24L644.56-2.24L644.56-2.24Q646.08-3.36 647.12-5.12L647.12-5.12L647.12-5.12Q649.04-8.08 649.84-10.16L649.84-10.16L652.16-22.80L652.16-22.80Q652.00-25.36 650.48-27.48L650.48-27.48L650.48-27.48Q648.96-29.60 645.28-29.60L645.28-29.60L645.28-29.60Q642.72-29.60 640.48-22.08L640.48-22.08L640.48-22.08Q638.24-14.56 638.24-7.52L638.24-7.52" fill="#141414" stroke="none" stroke-width="none" transform="translate(-331.9600410461426,19.62826403808594)" style="fill: rgb(8, 34, 103);"></path></g></g>
</g>
</g>
</svg>
